<svg width="800" height="450" viewBox="0 0 800 450" fill="none" xmlns="http://www.w3.org/2000/svg">
  <rect width="800" height="450" fill="#f3f4f6"/>
  <rect x="50" y="50" width="700" height="350" fill="#ffffff" stroke="#e5e7eb" stroke-width="2"/>

  <!-- Website mockup -->
  <rect x="100" y="100" width="600" height="250" fill="#1f2937" rx="8"/>
  <rect x="100" y="100" width="600" height="40" fill="#374151"/>
  <circle cx="120" cy="120" r="6" fill="#ef4444"/>
  <circle cx="140" cy="120" r="6" fill="#eab308"/>
  <circle cx="160" cy="120" r="6" fill="#22c55e"/>
  <rect x="180" y="110" width="200" height="20" fill="#6b7280" rx="10"/>
  <text x="280" y="125" text-anchor="middle" font-family="Arial, sans-serif" font-size="12" fill="#9ca3af">yourcompany.com</text>

  <!-- Hero section -->
  <rect x="120" y="160" width="560" height="160" fill="#ffffff"/>
  <rect x="140" y="180" width="250" height="120" fill="#f3f4f6"/>
  <text x="265" y="220" text-anchor="middle" font-family="Arial, sans-serif" font-size="16" fill="#374151" font-weight="bold">Modern Website</text>
  <text x="265" y="240" text-anchor="middle" font-family="Arial, sans-serif" font-size="12" fill="#6b7280">Professional Design</text>

  <rect x="420" y="180" width="120" height="40" fill="#3b82f6" rx="6"/>
  <text x="480" y="202" text-anchor="middle" font-family="Arial, sans-serif" font-size="14" fill="#ffffff" font-weight="bold">Get Started</text>

  <rect x="420" y="240" width="120" height="40" fill="#10b981" rx="6"/>
  <text x="480" y="262" text-anchor="middle" font-family="Arial, sans-serif" font-size="14" fill="#ffffff" font-weight="bold">Learn More</text>

  <!-- Conversion elements -->
  <circle cx="550" cy="200" r="20" fill="#22c55e"/>
  <text x="550" y="207" text-anchor="middle" font-family="Arial, sans-serif" font-size="16" fill="white">✓</text>
  <text x="580" y="207" font-family="Arial, sans-serif" font-size="14" fill="#22c55e">Lead Capture</text>

  <circle cx="550" cy="250" r="20" fill="#3b82f6"/>
  <text x="550" y="257" text-anchor="middle" font-family="Arial, sans-serif" font-size="16" fill="white">📞</text>
  <text x="580" y="257" font-family="Arial, sans-serif" font-size="14" fill="#3b82f6">Contact Info</text>

  <!-- Performance indicators -->
  <rect x="100" y="370" width="180" height="60" fill="#dcfce7" rx="8" stroke="#16a34a" stroke-width="2"/>
  <text x="110" y="385" font-family="Arial, sans-serif" font-size="12" fill="#16a34a" font-weight="bold">FAST LOADING</text>
  <text x="110" y="400" font-family="Arial, sans-serif" font-size="14" fill="#15803d">⚡ 2.1s load time</text>
  <text x="110" y="415" font-family="Arial, sans-serif" font-size="12" fill="#16a34a">Mobile optimized</text>

  <rect x="300" y="370" width="180" height="60" fill="#dbeafe" rx="8" stroke="#2563eb" stroke-width="2"/>
  <text x="310" y="385" font-family="Arial, sans-serif" font-size="12" fill="#2563eb" font-weight="bold">CONVERSION READY</text>
  <text x="310" y="400" font-family="Arial, sans-serif" font-size="14" fill="#1d4ed8">🎯 3.2x conversion rate</text>
  <text x="310" y="415" font-family="Arial, sans-serif" font-size="12" fill="#2563eb">Lead magnets active</text>

  <rect x="500" y="370" width="180" height="60" fill="#fef3c7" rx="8" stroke="#ca8a04" stroke-width="2"/>
  <text x="510" y="385" font-family="Arial, sans-serif" font-size="12" fill="#ca8a04" font-weight="bold">SEO OPTIMIZED</text>
  <text x="510" y="400" font-family="Arial, sans-serif" font-size="14" fill="#92400e">📈 Top 3 results</text>
  <text x="510" y="415" font-family="Arial, sans-serif" font-size="12" fill="#ca8a04">Schema markup</text>

  <text x="400" y="420" text-anchor="middle" font-family="Arial, sans-serif" font-size="18" fill="#374151" font-weight="bold">Site wired to offers that convert</text>
</svg>
