<svg width="800" height="450" viewBox="0 0 800 450" fill="none" xmlns="http://www.w3.org/2000/svg">
  <rect width="800" height="450" fill="#f3f4f6"/>
  <rect x="50" y="50" width="700" height="350" fill="#ffffff" stroke="#e5e7eb" stroke-width="2"/>
  <!-- Messy books illustration -->
  <rect x="100" y="100" width="120" height="180" fill="#dc2626" rx="4"/>
  <rect x="120" y="120" width="80" height="120" fill="#ffffff"/>
  <text x="160" y="190" text-anchor="middle" font-family="Arial, sans-serif" font-size="16" fill="#dc2626">CHAOS</text>

  <rect x="250" y="80" width="100" height="200" fill="#ea580c" rx="4" transform="rotate(15 300 180)"/>
  <rect x="270" y="100" width="60" height="160" fill="#ffffff"/>
  <text x="300" y="200" text-anchor="middle" font-family="Arial, sans-serif" font-size="14" fill="#ea580c">LATE</text>

  <rect x="400" y="120" width="150" height="150" fill="#ca8a04" rx="4" transform="rotate(-10 475 195)"/>
  <rect x="420" y="140" width="110" height="110" fill="#ffffff"/>
  <text x="475" y="210" text-anchor="middle" font-family="Arial, sans-serif" font-size="14" fill="#ca8a04">MESSY</text>

  <rect x="580" y="90" width="120" height="180" fill="#7c3aed" rx="4" transform="rotate(-8 640 180)"/>
  <rect x="600" y="110" width="80" height="140" fill="#ffffff"/>
  <text x="640" y="190" text-anchor="middle" font-family="Arial, sans-serif" font-size="14" fill="#7c3aed">NO DASH</text>

  <!-- Scattered papers -->
  <path d="M150 300 L200 320 L180 350 L140 340 Z" fill="#fbbf24"/>
  <path d="M400 320 L450 340 L430 370 L390 360 Z" fill="#10b981"/>
  <path d="M600 290 L650 310 L630 340 L590 330 Z" fill="#f97316"/>

  <text x="400" y="420" text-anchor="middle" font-family="Arial, sans-serif" font-size="18" fill="#374151" font-weight="bold">Messy books / no owner dashboard</text>
</svg>
